#!OML:ASF E:/inclinewalkrobotboard/Project1/Captureday1/Session1/subject1.ASF
:FULLY-SPECIFIED
:DEGREES
226
root 0 0 0 -0.389400154116348 -2.030140905251566 -3.8816292210730925
lowerback 16.498030039284156 1.1035515658366686 -0.11756867813030936
upperback 0.6820843486635246 1.4464150557147022 0.32875163656217055
thorax -8.592141816679383 0.6851333901235028 0.051078528621327
lowerneck -7.467852469551989 -3.266398735284241 1.2946404998849066
upperneck -5.8429481489540755 -4.240685398307331 1.7464111289826276
head -0.6826692686068583 -2.1966287518164798 0.24237395330085965
rclavicle -3.804498377329079E-16 1.6502360004899508E-17
rhumerus 12.082981386879204 0.4827656937382425 -39.45697248927884
rradius 118.72745249182645
rwrist -30.778440266737174
rhand -11.685576887169157 -36.532421095813724
rfingers 7.125019999999964
rthumb 14.39811432597568 -65.94904922296183
lclavicle -4.0601175163647153E-16 -4.630725711851672E-16
lhumerus -43.34385603493905 -0.387612385917653 83.15187899126381
lradius 45.27124881341922
lwrist 1.9411372972262249
lhand -15.583496259971984 -12.20884697286579
lfingers 7.1250199999999335
lthumb 10.558278434774264 16.929535971896144
rfemur -2.778381615298464 1.0340077789598694 5.556486447934404
rtibia 8.319536098138087
rfoot -1.5665613387712387 -1.3556468284235752
rtoes 0.7965665435378899
lfemur -6.508861300943837 -3.5745254805068507 -12.222125082736936
ltibia 27.394749985910746
lfoot -19.291349090728023 7.99168437062203
ltoes -43.37645854165926
227
root 0 0 0 -0.3888291289739868 -2.0300573835670517 -3.8823233546467173
lowerback 16.497089432371013 1.1040574619999117 -0.11711017953492253
upperback 0.6819784718171664 1.4471068023513403 0.3285196659809717
thorax -8.591694745079518 0.6854797217190308 0.0505150864659033
lowerneck -7.46633197722459 -3.2665447354674297 1.294678791227566
upperneck -5.841228024946901 -4.241218312090334 1.7475297607488822
head -0.682477332792744 -2.1967659045786863 0.24271198905086033
rclavicle -3.803257069074604E-16 1.6713295476713603E-17
rhumerus 12.087005615688277 0.4882371019178713 -39.4521175801316
rradius 118.74117853107049
rwrist -30.784872055212272
rhand -11.683492368014376 -36.545358542959164
rfingers 7.125019999999964
rthumb 14.40008881147623 -65.96158791467869
lclavicle -4.058217218676414E-16 -4.627070195904359E-16
lhumerus -43.34740948713226 -0.38758168617059585 83.15256050240544
lradius 45.27642393917977
lwrist 1.9391977587350775
lhand -15.579331393061848 -12.222098327011219
lfingers 7.1250199999999335
lthumb 10.562239365850006 16.916974135820993
rfemur -2.7775509943245247 1.0337260197617706 5.554869907925147
rtibia 8.316818056543632
rfoot -1.5662090783701874 -1.3552539597109616
rtoes 0.7962607799489176
lfemur -6.507618026411633 -3.5754130473725323 -12.219398662062572
ltibia 27.392107067440527
lfoot -19.296347956857545 7.996035475120301
ltoes -43.39088443254755
228
root 0 0 0 -0.38834576396081566 -2.029985542146881 -3.882889148582601
lowerback 16.496159106998356 1.1044507066930553 -0.11674514663519142
upperback 0.6818097863827499 1.447642950258282 0.3283288440222949
thorax -8.591321658741418 0.6857484631585797 0.050068956338431114
lowerneck -7.465138866799378 -3.2666247047993697 1.2947393976741646
upperneck -5.839705073380731 -4.241607556386101 1.7484186956601873
head -0.6822609718937018 -2.1968523455329687 0.24297851388952335
rclavicle -3.8021989408864873E-16 1.6859851487533186E-17
rhumerus 12.089058267879537 0.49216687979585316 -39.449300514573316
rradius 118.74996776997646
rwrist -30.789010297356448
rhand -11.68193202259021 -36.55455374656472
rfingers 7.125019999999964
rthumb 14.401566075654651 -65.97049236441849
lclavicle -4.055631301067877E-16 -4.623694156833113E-16
lhumerus -43.35089018740456 -0.3874927303760235 83.1532014274049
lradius 45.28136653198207
lwrist 1.9372695958453419
lhand -15.575292512725962 -12.234913160878575
lfingers 7.1250199999999335
lthumb 10.566082892172469 16.904777008270372
rfemur -2.7759893945749923 1.0331324926663927 5.551682508512748
rtibia 8.311954272060508
rfoot -1.565355845450076 -1.3544757780822407
rtoes 0.7957287366166712
lfemur -6.506348944670169 -3.5763039372436576 -12.216766268808303
ltibia 27.38946169046424
lfoot -19.301225152506987 8.000267214610613
ltoes -43.4048629759493
229
root 0 0 0 -0.38796216809148476 -2.0299648758193425 -3.8832241973601462
lowerback 16.495655131144193 1.1045116375080126 -0.11663967342836734
upperback 0.6815074104278908 1.4477071843764329 0.3282148191712517
thorax -8.591342895634881 0.6857862596595248 0.04989618155343167
lowerneck -7.46427744249645 -3.266452112875725 1.2951560423814095
upperneck -5.840419396186952 -4.241487138936574 1.7485673375052653
head -0.6826896221850802 -2.1967710038827355 0.24300710994606317
rclavicle -3.801145094546349E-16 1.695728368782428E-17
rhumerus 12.089342845330009 0.4951638844399735 -39.448169840583205
rradius 118.75503308183333
rwrist -30.7914325902308
rhand -11.680641960829881 -36.5614211018412
rfingers 7.125019999999964
rthumb 14.402786371708958 -65.9771418331959
lclavicle -4.052555021491583E-16 -4.620536053132768E-16
lhumerus -43.35447056738482 -0.38740162075945994 83.15379152791698
lradius 45.286414344573025
lwrist 1.9353558013520797
lhand -15.571206216541466 -12.247853939489348
lfingers 7.1250199999999335
lthumb 10.5699636412368 16.892402015552975
rfemur -2.773848459243678 1.0322929482496805 5.54724937298179
rtibia 8.305393407706738
rfoot -1.5640966851470046 -1.3533911615057588
rtoes 0.795021879893306
lfemur -6.505152292109538 -3.577125878967494 -12.214399746318934
ltibia 27.387028840221436
lfoot -19.305646289622302 8.004089551366883
ltoes -43.417477537225544
